<svg xmlns="http://www.w3.org/2000/svg" width="155" height="70" viewBox="0 0 155 70"><g><g><path fill="#004cff" d="M35.204 25.46s-6.116 4.304-6.343 15.52c-.168 8.288 4.058 12.37 6.275 13.935-3.26-28.984 25.209-66.656 52.347-50.251 14.348 8.676 9.106 25.302.703 22.502-1.362-.455-2.324-1.001-2.958-1.45l-1.512 10.362 6.142-3.794c-.569 2.538-.557 4.387.305 6.849-2-1.007-4.72-1.43-6.825-.471l-1.635 11.211c.803 1.193 1.868 2.456 2.869 2.63 1.961.344 2.894-1.568 4.315-5.392 1.422-3.825 2.06-5.787 3.334-6.277 1.276-.49 3.237-.343 3.237-.343s-2.354 4.805-2.354 8.385c0 3.579.67 4.695.67 4.695s-4.005.404-7.926.698c-3.924.295-13.339 2.01-13.339 2.01s.49-.98 1.864-3.677c.225-.442.45-.88.666-1.301l3.986-27.115c-.076-.711-.173-1.307-.291-1.59-.425-1.011-2.064-1.477-2.064-1.477s.587-1.456.545-1.538l2.54-.362.013-.082 6.562-.969-.942 6.45c7.64-1.984 7.601-12.812.34-17.311C63.402-6.53 35.462 31.19 41.065 58.989c.203.77.442 1.506.71 2.043.907 1.813 1.7 2.945 1.7 2.945-11.106 2.513-21.228-9.664-20.144-18.94-2.295 3.1-5.034 7.398-5.545 14.047-.605 7.853 3.71 9.148 3.71 9.148l-1.726.172s-8.768.078-9.065-4.973C8.006 67.984.055 67.886.055 67.886s5.976-1.992 6.71-12.579c.728-10.524 1.86-20.537-6.71-27.672 0 0 5.451.943 9.75-1.572 4.296-2.515 4.296-2.935 6.498-3.25 2.201-.314 3.25 1.468 3.25 1.468s-4.926-.944-5.452 10.063c-.362 7.626-.574 16.007-1.473 22.109 2.43-5.588 6.507-12.208 8.437-16.007 2.76-5.437 2.487-8.225 1.862-9.268-.625-1.042-1.808-1.459-1.599-2.014.169-.448 10.64-2.966 13.876-3.705zM10.346 41.567l.804-.92-.921-.804-.803.92zm99.724 12.44c-.545-5.412 2.114-16.7 8.947-16.182-2.795 3.019-4.925 11.943-4.33 16.337 1.583 11.681 15.704 15.533 25.26 5.978-10.338 13.2-28.45 7.97-29.877-6.133zm-4.629-17.361c1.575-2.638 4.207-3.774 7.772-2.376l-2.546 4.322c-3.05-2.064-4.992.411-5.959 3.094-.626 3.96-1.558 7.916 4.129 8.517.114.011.352-.086.352.034l-.002 1.543c-5.044.332-9.561.95-14.532 1.815 0 0 .814-1.594 1.659-3.951.47-1.31 1.088-3.769 1.547-5.698l3.004-20.252c-.086-1.448-.23-3.126-.456-3.666-.425-1.011-2.064-1.477-2.064-1.477s.586-1.457.546-1.537l3.028-.434.002-.008 4.617-.682.031-.082 13.06-1.524c.125-.015-4.244 8.38-4.607 8.67-.363.291-1.305-.036-2.14-1.741-.835-1.705-.435-3.156-1.27-4.1-.834-.943-1.67-1.015-2.576-.29-.257.206-.584.705-.92 1.316zm48.525-27.812s-1.803 1.39-2.278 3.675c-.475 2.284 0 9.237 0 9.237s-3.038.298-4.177-1.888c-1.139-2.185-1.329-5.86-2.847-7.25-1.519-1.39-4.176-.894-3.987 3.874.36 9.027 17.545 23.433 13.44 37.858-3.156 11.086-14.084 15.67-24.45 14.783 8.487-1.528 15.638-5.97 17.925-15.1 3.521-14.053-13.195-25.204-12.514-36.35.225-3.695 1.311-5.736 2.631-6.825 2.674-2.208 7.65-1.45 9.974.714.876-3.044 6.283-2.728 6.283-2.728zm-28.432 37.261c.654.798 1.393 1.462 2.098 1.585 1.962.344 2.894-1.569 4.315-5.394 1.423-3.824 2.06-5.785 3.335-6.276 1.275-.49 3.236-.343 3.236-.343s-2.354 4.805-2.354 8.385.67 4.695.67 4.695-4.005.404-7.927.699c-3.923.294-13.338 2.01-13.338 2.01s.492-.98 1.864-3.678a394.021 394.021 0 0 1 1.955-3.785l3.764-25.602a5.341 5.341 0 0 0-.269-1.133c-.275-.76-.766-1.228-1.26-1.965l-.017-1.033c.022.045 1.072-.089 2.19-.245l.004-.032 6.562-.97-.006.04c1.555-.264 3.093-.529 3.109-.552l.073 1.128s-1.748 0-2.84 1.894c-.311.538-.678 1.393-1.05 2.38zm7.93-33.594zM50.827 23.52l2.886-.412.003-.027 6.562-.97-2.326 16.126c2.778 1.534 5.287 3.996 6.8 7.255l3.629-24.684 6.561-.969-5.308 36.804-6.65.88 1.118-7.609c-.25-1.383-.652-2.78-1.298-3.879-1.175-2.006-3.133-3.525-5.335-4.444l-2.5 17.325-4.04.535-.004.025-6.12.94.205-.997s1.958-.283 2.691-2.148c.416-1.052 1.395-4.89 2.172-8.041l1.259-8.567c-3.597.465-6.519 2.809-6.412 7.517-1.876-3.554-1.19-6.92-.003-8.679 1.51-2.24 4.134-3.222 7.04-3.093l1.003-6.828c-.087-1.276-.22-2.582-.415-3.045-.426-1.012-2.064-1.477-2.064-1.477s.587-1.457.546-1.538zM11.95 29.076c-.835 1.557-3.42 2.295-5.08 2.081 1.89 2.207 2.838 5.054 3.165 7.911 0 0 1.123-7.869 1.915-9.992z"/></g></g></svg>