<svg xmlns="http://www.w3.org/2000/svg" width="35" height="23" viewBox="0 0 35 23"><g><g><path fill="#262626" d="M7.669 9.89l-1.74 11.736c-.4.993-2.353.963-2.301-.335L5.26 10.285c-1.89.003-3.673-.829-5.095-3.111L2.14 5.946c2.045 3.286 5.685 1.715 8.67-.142.844-.527 1.603-1.05 2.285-1.518l.693-.473c1.26-.854 2.566-1.676 3.89-2.291C19.074.872 20.507.444 21.96.416c3.876-.074 5.664 2.455 6.473 4.47-.705.304-1.363.8-1.94 1.452-.453-1.45-1.616-3.659-4.497-3.604-1.08.02-2.21.369-3.345.897-1.207.56-2.406 1.315-3.565 2.1l-.674.465a62.473 62.473 0 0 1-2.376 1.58c-1.38.859-2.874 1.657-4.367 2.114zm24.465 3.103v.001c-.184 1.349-.681 2.508-1.336 3.292-.533.638-1.144.996-1.707.919-.559-.076-1.05-.583-1.393-1.34-.417-.924-.587-2.162-.41-3.5l.004-.036c.184-1.349.68-2.51 1.336-3.293.533-.639 1.144-.996 1.706-.919h.001c.56.076 1.05.582 1.393 1.34.422.932.59 2.184.406 3.536zM12.617 11.348l-1.032 5.337 3.614-4.91 1.116-1.412.824 1.604 1.892 3.683 2.68-9.053c.759-1.635 2.586-.675 2.228.654l-2.718 9.185c-.403 1.36-.698 4.04-2.366 4.04L15.9 14.625c-2.487 3.143-3.585 5.957-7.368 6.924l1.793-10.573c.822-2.113 2.602-.908 2.292.372z"/></g></g></svg>