<svg xmlns="http://www.w3.org/2000/svg" width="62" height="17" viewBox="0 0 62 17"><g><g><path fill="#262626" d="M59.985 6.842c-.16.657-.466 1.2-.914 1.63-.448.43-.996.69-1.644.778-.559.078-.986-.062-1.28-.418-.31-.383-.372-.926-.183-1.63.028-.12.08-.314.154-.584.046-.159.109-.243.188-.253.08-.011.303-.05.674-.115.371-.066.596-.103.675-.114.078-.01.094.08.046.274l-.134.549c-.131.537-.044.785.263.743.245-.034.42-.235.526-.603l.178-.63c.053-.188-.082-.447-.404-.778-.542-.56-.838-.876-.89-.948-.304-.406-.41-.799-.316-1.18l.233-.951c.167-.68.469-1.244.908-1.695.47-.49 1.056-.79 1.754-.901.57-.085.977.038 1.223.372.228.315.27.767.124 1.357l-.271 1.108c-.028.112-.085.179-.175.198-.233.054-.664.113-1.289.178-.104.014-.14-.035-.113-.147.034-.17.115-.47.244-.899a.925.925 0 0 0 .024-.453c-.03-.144-.1-.208-.21-.193-.308.043-.522.31-.643.804l-.143.581c-.056.232.072.532.387.9l.892 1.023c.298.436.4.844.306 1.224zm-11.551 3.421c.016.12-.02.19-.108.21l-1.628.224c-.064.009-.097-.036-.104-.137-.018-.328-.042-1.104-.072-2.327-.002-.115-.01-.176-.024-.18-.008 0-.031.065-.07.193-.163.538-.364 1.343-.603 2.41-.026.112-.084.173-.171.185l-1.164.16c-.102.015-.137-.049-.102-.19l2.134-8.703c.026-.104.079-.162.157-.172.317-.051.743-.11 1.278-.177.077-.003.104.044.08.141-.37 1.357-.582 2.154-.633 2.392-.012.052-.006.076.017.073.026-.01.053-.047.084-.109.234-.485.639-1.3 1.217-2.449.059-.11.123-.17.194-.18.18-.017.436-.053.77-.106l.614-.085c.111-.015.154.03.128.134a.25.25 0 0 1-.028.069 77.965 77.965 0 0 0-1.452 2.187c-.739 1.148-1.105 1.741-1.1 1.784.132 1.201.328 2.75.586 4.653zm-11.146 1.72c-.003.044-.044.072-.123.082l-.615.085c-.298.034-.558.066-.78.097-.07.01-.102-.22-.093-.69a14 14 0 0 1 .053-.917c.006-.05-.031-.07-.11-.06l-.462.064a.163.163 0 0 0-.127.094c-.182.464-.406 1-.67 1.615-.05.073-.091.112-.131.117l-1.457.201c-.126.018-.166-.02-.12-.113l1.93-4.702c1.251-3.023 1.93-4.544 2.035-4.566.43-.08.857-.14 1.277-.176.093-.006.023 1.432-.211 4.314a761.268 761.268 0 0 1-.396 4.556zm-1.3-2.818c.091-.834.12-1.25.089-1.245-.04.006-.132.195-.277.568l-.273.742c-.013.023.02.034.1.034s.157-.009.23-.026c.081-.019.124-.042.131-.073zm-10.45 4.341c-.022.09-.097.147-.224.172-1.106.203-2.1.333-2.978.389-.085.004-.112-.061-.077-.195l2.143-8.747c.02-.081.074-.129.161-.14.61-.091 1.59-.224 2.944-.396.127-.017.178.02.157.109-.03.12-.08.321-.148.604a89.45 89.45 0 0 0-.176.668c-.023.093-.077.146-.165.159l-1.35.185c-.117.017-.186.066-.207.148-.008.037-.077.303-.207.796-.11.42-.187.734-.23.941-.02.083.015.124.105.127.16 0 .522-.047 1.09-.14.1-.014.145.024.13.112-.025.133-.09.384-.195.752-.12.428-.19.679-.208.754-.026.104-.082.162-.168.174l-1.065.147c-.08.012-.141.074-.183.186-.116.315-.268.904-.456 1.765-.023.095.033.142.172.137l1.302-.18c.126-.017.177.023.153.12a59.33 59.33 0 0 0-.32 1.353zm-10.355 1.341c0 .159-.062.25-.181.274-.154.036-.615.095-1.382.18-.087.011-.114-.082-.081-.281.085-.503.205-1.063.356-1.683.276-1.128.205-1.662-.212-1.605a.242.242 0 0 0-.143.02c-.06.03-.108.115-.143.258a397.484 397.484 0 0 1-.77 3.093c-.047.193-.115.3-.204.32a7.311 7.311 0 0 1-1.225.19c-.092.005-.113-.096-.061-.306l2.11-8.611c.034-.134.12-.212.265-.231.435-.06 1.032-.146 1.788-.257.493-.069.886-.029 1.18.118.319.166.436.424.349.784l-.552 2.205c-.09.366-.281.694-.574.986-.204.209-.412.36-.626.454-.07.032-.106.058-.112.081-.003.014.024.029.082.043a.812.812 0 0 1 .405.214c.296.254.3.97.01 2.148-.185.755-.277 1.289-.28 1.606zm-.03-6.596c.121-.493.005-.704-.347-.633a1.35 1.35 0 0 1-.184.046c-.07.01-.122.079-.153.205l-.48 1.962c-.051.207-.022.307.086.3a.486.486 0 0 0 .141-.02.566.566 0 0 0 .417-.295c.153-.252.327-.774.52-1.565zM6.326 7.65c-.122.5-.22.882-.291 1.144-.017.067-.09.117-.22.15-.355.048-.841.119-1.46.211a.221.221 0 0 0-.18.177l-.482 1.97c-.028.113-.002.163.077.152.172-.016.571-.079 1.2-.187.112-.016.159.025.143.121-.043.294-.162.783-.36 1.467-.019.075-.067.118-.145.128-.287.033-.695.09-1.222.169a.23.23 0 0 0-.176.165c-.08.263-.211.782-.393 1.558-.27 1.098-.41 1.668-.42 1.713-.024.097-.092.158-.203.18-.555.127-1.057.2-1.508.218-.1.007-.139-.039-.115-.135L2.7 8.16c.029-.112.105-.177.231-.195.365-.057.938-.136 1.717-.236l1.536-.201c.118-.017.165.024.141.12z"/></g></g></svg>